<svg id="Groupe_485" data-name="Groupe 485" xmlns="http://www.w3.org/2000/svg" width="146.769" height="141.499" viewBox="0 0 146.769 141.499">
  <path id="Tracé_653" data-name="Tracé 653" d="M61.7,272.7l2.273,2.273H78.648l1.343-1.447Z" transform="translate(2.087 -133.475)" fill="#f47155"/>
  <path id="Tracé_654" data-name="Tracé 654" d="M145.193,207.755,76.886,139.448a5.052,5.052,0,0,0-7.13,0L1.448,207.755a5.052,5.052,0,0,0,0,7.13l54.15,54.15H90.94l2.79-2.79L62,267.589l-3.1-7.751,46.4-6.2-.413,1.55,40.3-40.3A4.875,4.875,0,0,0,145.193,207.755Zm-31.105-25.732c1.653.93,4.857,6.717,4.857,6.717-15.708,5.167-21.6,14.778-21.6,14.778A38.827,38.827,0,0,1,114.088,182.024Zm4.65,28.005s-17.981-.827-37.1,21.908c0,0,3.41-22.941,33.379-34.722C115.018,197.215,117.808,201.245,118.738,210.029ZM99.414,188.017C79.056,210.132,78.229,230.49,78.229,230.49a69.943,69.943,0,0,1,7.647-48.88C89.287,181.714,99.414,188.017,99.414,188.017ZM78.953,171.69c-6.82,11.367-6.2,36.582-6.2,36.582-5.167-10.231-8.371-35.549-8.371-35.549C66.758,169.933,78.953,171.69,78.953,171.69Zm-30.485,4.34a33,33,0,0,1,14.364,18.5s-5.064-8.267-18.6-12.814C44.334,181.817,47.124,176.857,48.467,176.03ZM46.4,188.017c31,19.945,28.005,39.889,28.005,39.889-8.474-23.975-35.652-26.352-35.652-26.352C40.407,191.841,46.4,188.017,46.4,188.017ZM26.353,206.309c31.519-4.65,48.053,26.352,48.053,26.352-21.7-22.115-53.117-12.3-53.117-12.3C20.049,213.129,26.353,206.309,26.353,206.309ZM62.625,236.38l-3.1,3.1a.194.194,0,0,1-.31,0l-3.1-3.1a.194.194,0,0,1,0-.31l3.1-3.1a.194.194,0,0,1,.31,0l3.1,3.1C62.728,236.07,62.728,236.277,62.625,236.38ZM27.7,232.247l-3.617-3.617a.811.811,0,0,1,0-1.137l3.617-3.617a.811.811,0,0,1,1.137,0l3.617,3.617a.811.811,0,0,1,0,1.137l-3.617,3.617A.811.811,0,0,1,27.7,232.247Zm10.747,6.2-3.1,3.1a.194.194,0,0,1-.31,0l-3.1-3.1a.194.194,0,0,1,0-.31l3.1-3.1a.194.194,0,0,1,.31,0l3.1,3.1A.194.194,0,0,1,38.443,238.447Zm8.371-5.27-4.444-4.444a.811.811,0,0,1,0-1.137l4.444-4.444a.811.811,0,0,1,1.137,0l4.444,4.444a.811.811,0,0,1,0,1.137l-4.444,4.444A.811.811,0,0,1,46.814,233.177Zm52.393,15.811-44.85,9.3L49.6,241.237l54.15-4.65Zm5.89-23.355-4.444,4.444a.811.811,0,0,1-1.137,0l-4.444-4.444a.811.811,0,0,1,0-1.137l4.444-4.444a.811.811,0,0,1,1.137,0L105.1,224.5A.675.675,0,0,1,105.1,225.633Zm8.474,5.787-3.1,3.1a.194.194,0,0,1-.31,0l-3.1-3.1a.194.194,0,0,1,0-.31l3.1-3.1a.194.194,0,0,1,.31,0l3.1,3.1C113.675,231.11,113.675,231.317,113.571,231.42Zm13.124-1.343L122.769,234a.811.811,0,0,1-1.137,0l-3.927-3.927a.811.811,0,0,1,0-1.137l3.927-3.927a.811.811,0,0,1,1.137,0l3.927,3.927A.811.811,0,0,1,126.7,230.077Z" transform="translate(0.025 -137.975)" fill="#f47155"/>
</svg>
