<svg id="call-answer" xmlns="http://www.w3.org/2000/svg" width="16.964" height="16.926" viewBox="0 0 16.964 16.926">
  <g id="Groupe_8662" data-name="Groupe 8662" transform="translate(0 0)">
    <g id="Groupe_8661" data-name="Groupe 8661" transform="translate(0 0)">
      <path id="Tracé_8062" data-name="Tracé 8062" d="M16.583,13.781l-2.62-2.62a1.366,1.366,0,0,0-1.926.036l-1.32,1.32-.26-.145a13.135,13.135,0,0,1-3.175-2.3,13.208,13.208,0,0,1-2.3-3.18c-.049-.088-.1-.174-.142-.254l.886-.885.436-.436A1.365,1.365,0,0,0,6.2,3.394L3.576.774A1.365,1.365,0,0,0,1.65.81l-.738.743.02.02A4.27,4.27,0,0,0,.324,2.646,4.449,4.449,0,0,0,.053,3.734C-.293,6.6,1.018,9.223,4.574,12.78c4.916,4.916,8.878,4.545,9.049,4.526a4.427,4.427,0,0,0,1.092-.274,4.255,4.255,0,0,0,1.069-.606l.016.014.748-.732A1.367,1.367,0,0,0,16.583,13.781Z" transform="translate(0 -0.394)" fill="#f47155"/>
    </g>
  </g>
</svg>
