<svg xmlns="http://www.w3.org/2000/svg" width="71.828" height="67.841" viewBox="0 0 71.828 67.841">
  <g id="fireworks" transform="translate(0.514 0.5)">
    <path id="Tracé_8076" data-name="Tracé 8076" d="M180.193,28.8a1.39,1.39,0,0,1-.463-.08L172.8,26.256l-6.934,2.466a1.383,1.383,0,0,1-1.846-1.341l.2-7.356-4.488-5.833a1.382,1.382,0,0,1,.7-2.169l7.059-2.081,4.16-6.071a1.384,1.384,0,0,1,2.282,0l4.16,6.071,7.059,2.081a1.382,1.382,0,0,1,.7,2.169l-4.488,5.833.2,7.356a1.383,1.383,0,0,1-1.383,1.421ZM163.154,14.1l3.557,4.623a1.382,1.382,0,0,1,.286.881l-.16,5.831,5.5-1.954a1.386,1.386,0,0,1,.927,0l5.5,1.954-.16-5.831a1.379,1.379,0,0,1,.286-.881l3.557-4.623-5.6-1.65a1.38,1.38,0,0,1-.75-.544L172.8,7.1l-3.3,4.812a1.381,1.381,0,0,1-.75.544Zm0,0" transform="translate(-137.396 -2.887)" fill="#f47254" stroke="#f47254" stroke-width="1"/>
    <path id="Tracé_8077" data-name="Tracé 8077" d="M380.112,13.683a1.383,1.383,0,0,1-1.382-1.421l.085-3.1L376.924,6.7a1.382,1.382,0,0,1,.7-2.169l2.974-.877L382.356,1.1a1.383,1.383,0,0,1,2.282,0l1.753,2.558,2.974.877a1.382,1.382,0,0,1,.705,2.169l-1.891,2.458.085,3.1a1.383,1.383,0,0,1-1.845,1.341L383.5,12.564,380.575,13.6A1.39,1.39,0,0,1,380.112,13.683ZM383.5,9.714a1.375,1.375,0,0,1,.463.08l1.484.527L385.4,8.747a1.378,1.378,0,0,1,.286-.881l.96-1.248-1.51-.445a1.383,1.383,0,0,1-.75-.544l-.89-1.3-.89,1.3a1.383,1.383,0,0,1-.75.544l-1.51.445.96,1.248a1.381,1.381,0,0,1,.286.881l-.043,1.574,1.484-.527A1.384,1.384,0,0,1,383.5,9.714Zm0,0" transform="translate(-324.555 -0.5)" fill="#f47254" stroke="#f47254" stroke-width="1"/>
    <path id="Tracé_8078" data-name="Tracé 8078" d="M46.4,13.683a1.39,1.39,0,0,1-.463-.08l-2.921-1.039L40.092,13.6a1.383,1.383,0,0,1-1.846-1.341l.085-3.1L36.441,6.7a1.383,1.383,0,0,1,.705-2.17l2.974-.877L41.872,1.1a1.384,1.384,0,0,1,2.282,0l1.753,2.558,2.974.877A1.383,1.383,0,0,1,49.586,6.7L47.695,9.162l.085,3.1A1.383,1.383,0,0,1,46.4,13.683ZM43.013,9.714a1.378,1.378,0,0,1,.463.08l1.484.527-.043-1.574a1.381,1.381,0,0,1,.286-.881l.96-1.248-1.51-.445a1.381,1.381,0,0,1-.75-.544l-.89-1.3-.89,1.3a1.383,1.383,0,0,1-.75.544l-1.51.445.96,1.248a1.382,1.382,0,0,1,.286.881l-.043,1.574,1.484-.527A1.375,1.375,0,0,1,43.013,9.714Zm0,0" transform="translate(-31.155 -0.5)" fill="#f47254" stroke="#f47254" stroke-width="1"/>
    <path id="Tracé_8079" data-name="Tracé 8079" d="M247.383,396.775a1.375,1.375,0,0,1-.27-.028,1.313,1.313,0,0,1-.259-.079,1.371,1.371,0,0,1-.239-.128,1.337,1.337,0,0,1-.381-.381,1.338,1.338,0,0,1-.127-.239,1.313,1.313,0,0,1-.079-.259,1.332,1.332,0,0,1,0-.539,1.344,1.344,0,0,1,.079-.26,1.365,1.365,0,0,1,.127-.238,1.337,1.337,0,0,1,.381-.381,1.335,1.335,0,0,1,.239-.128,1.391,1.391,0,0,1,.259-.079,1.371,1.371,0,0,1,.539,0,1.39,1.39,0,0,1,.259.079,1.329,1.329,0,0,1,.239.128,1.329,1.329,0,0,1,.382.381,1.4,1.4,0,0,1,.127.238,1.306,1.306,0,0,1,.078.26,1.307,1.307,0,0,1,0,.539,1.387,1.387,0,0,1-.078.259,1.367,1.367,0,0,1-.127.239,1.329,1.329,0,0,1-.382.381,1.365,1.365,0,0,1-.239.128,1.312,1.312,0,0,1-.259.079A1.375,1.375,0,0,1,247.383,396.775Zm0,0" transform="translate(-211.983 -339.595)" fill="#f47254" stroke="#f47254" stroke-width="1"/>
    <path id="Tracé_8080" data-name="Tracé 8080" d="M247.383,221.583A1.383,1.383,0,0,1,246,220.2V197.383a1.383,1.383,0,1,1,2.766,0V220.2A1.383,1.383,0,0,1,247.383,221.583Zm0,0" transform="translate(-211.983 -168.966)" fill="#f47254" stroke="#f47254" stroke-width="1"/>
    <path id="Tracé_8081" data-name="Tracé 8081" d="M364.977,182.186a1.329,1.329,0,0,1-.217-.017,1.383,1.383,0,0,1-1.033-.772l-2.485-5.228-5.228-2.485a1.382,1.382,0,0,1-.357-2.253l4.2-3.979.748-5.74a1.383,1.383,0,0,1,2.033-1.035l5.084,2.768,5.69-1.062a1.383,1.383,0,0,1,1.613,1.613l-1.062,5.69,2.769,5.083A1.383,1.383,0,0,1,375.7,176.8l-5.74.748-3.979,4.2A1.38,1.38,0,0,1,364.977,182.186Zm-5.953-10.134,3.85,1.83a1.385,1.385,0,0,1,.655.655l1.83,3.85,2.93-3.1a1.383,1.383,0,0,1,.826-.421l4.227-.551-2.039-3.743a1.385,1.385,0,0,1-.145-.915l.782-4.191-4.19.783a1.385,1.385,0,0,1-.915-.145l-3.744-2.039-.55,4.227a1.38,1.38,0,0,1-.421.825Zm0,0" transform="translate(-306.104 -138.381)" fill="#f47254" stroke="#f47254" stroke-width="1"/>
    <path id="Tracé_8082" data-name="Tracé 8082" d="M265.019,309.291c-.048,0-.1,0-.144-.007a1.384,1.384,0,0,1-1.233-1.518,36.483,36.483,0,0,1,8.51-19.472,37.925,37.925,0,0,1,7.251-6.786,1.383,1.383,0,1,1,1.532,2.3,34.878,34.878,0,0,0-6.662,6.257,33.731,33.731,0,0,0-7.88,17.983A1.383,1.383,0,0,1,265.019,309.291Zm0,0" transform="translate(-227.178 -242.45)" fill="#f47254" stroke="#f47254" stroke-width="1"/>
    <path id="Tracé_8083" data-name="Tracé 8083" d="M11.928,182.187a1.383,1.383,0,0,1-1-.432l-3.979-4.2L1.2,176.8A1.383,1.383,0,0,1,.169,174.77l2.768-5.083L1.875,164a1.382,1.382,0,0,1,1.613-1.613l5.69,1.063,5.083-2.769a1.383,1.383,0,0,1,2.033,1.035l.748,5.74,4.2,3.979a1.384,1.384,0,0,1-.357,2.254l-5.228,2.485L13.177,181.4a1.384,1.384,0,0,1-1.033.772A1.337,1.337,0,0,1,11.928,182.187Zm-8.365-7.866,4.227.551a1.38,1.38,0,0,1,.825.421l2.93,3.1,1.83-3.85a1.383,1.383,0,0,1,.655-.655l3.85-1.83-3.1-2.93a1.38,1.38,0,0,1-.421-.825l-.551-4.227L10.07,166.11a1.385,1.385,0,0,1-.915.145l-4.191-.782.782,4.19a1.377,1.377,0,0,1-.145.915Zm0,0" transform="translate(-0.001 -138.382)" fill="#f47254" stroke="#f47254" stroke-width="1"/>
    <path id="Tracé_8084" data-name="Tracé 8084" d="M135.327,309.29a1.383,1.383,0,0,1-1.374-1.241,33.734,33.734,0,0,0-7.88-17.983,34.887,34.887,0,0,0-6.662-6.257,1.383,1.383,0,1,1,1.533-2.3,37.942,37.942,0,0,1,7.251,6.785,36.482,36.482,0,0,1,8.51,19.472,1.383,1.383,0,0,1-1.234,1.517A1.294,1.294,0,0,1,135.327,309.29Zm0,0" transform="translate(-102.367 -242.449)" fill="#f47254" stroke="#f47254" stroke-width="1"/>
    <path id="Tracé_8085" data-name="Tracé 8085" d="M325.945,398.673a1.383,1.383,0,0,1-1.256-1.96A20.931,20.931,0,0,1,332.9,387.7a21.439,21.439,0,0,1,5.2-2.35,1.383,1.383,0,1,1,.712,2.672,19.16,19.16,0,0,0-4.473,2.04,18.179,18.179,0,0,0-7.135,7.807A1.382,1.382,0,0,1,325.945,398.673Zm0,0" transform="translate(-279.681 -332.09)" fill="#f47254" stroke="#f47254" stroke-width="1"/>
    <path id="Tracé_8086" data-name="Tracé 8086" d="M100.352,398.673a1.384,1.384,0,0,1-1.258-.806,18.172,18.172,0,0,0-7.135-7.807,19.149,19.149,0,0,0-4.473-2.04,1.383,1.383,0,0,1,.713-2.672,21.46,21.46,0,0,1,5.2,2.35,20.931,20.931,0,0,1,8.209,9.015,1.383,1.383,0,0,1-1.256,1.96Zm0,0" transform="translate(-74.504 -332.09)" fill="#f47254" stroke="#f47254" stroke-width="1"/>
    <path id="Tracé_8087" data-name="Tracé 8087" d="M457.227,330.581a1.383,1.383,0,0,1-1.383-1.383v-1.151a1.383,1.383,0,0,1,2.766,0V329.2A1.383,1.383,0,0,1,457.227,330.581Zm0,0" transform="translate(-392.809 -281.562)" fill="#f47254" stroke="#f47254" stroke-width="1"/>
    <path id="Tracé_8088" data-name="Tracé 8088" d="M457.227,375.73a1.383,1.383,0,0,1-1.383-1.383V373.2a1.383,1.383,0,0,1,2.766,0v1.152A1.383,1.383,0,0,1,457.227,375.73Zm0,0" transform="translate(-392.809 -320.467)" fill="#f47254" stroke="#f47254" stroke-width="1"/>
    <path id="Tracé_8089" data-name="Tracé 8089" d="M476.792,356.168h-1.151a1.383,1.383,0,1,1,0-2.766h1.151a1.383,1.383,0,0,1,0,2.766Zm0,0" transform="translate(-408.677 -304.602)" fill="#f47254" stroke="#f47254" stroke-width="1"/>
    <path id="Tracé_8090" data-name="Tracé 8090" d="M431.643,356.168h-1.151a1.383,1.383,0,1,1,0-2.766h1.151a1.383,1.383,0,1,1,0,2.766Zm0,0" transform="translate(-369.771 -304.602)" fill="#f47254" stroke="#f47254" stroke-width="1"/>
    <path id="Tracé_8091" data-name="Tracé 8091" d="M37.535,330.581a1.383,1.383,0,0,1-1.383-1.383v-1.151a1.383,1.383,0,0,1,2.766,0V329.2A1.383,1.383,0,0,1,37.535,330.581Zm0,0" transform="translate(-31.153 -281.562)" fill="#f47254" stroke="#f47254" stroke-width="1"/>
    <path id="Tracé_8092" data-name="Tracé 8092" d="M37.535,375.73a1.383,1.383,0,0,1-1.383-1.383V373.2a1.383,1.383,0,0,1,2.766,0v1.152A1.383,1.383,0,0,1,37.535,375.73Zm0,0" transform="translate(-31.153 -320.467)" fill="#f47254" stroke="#f47254" stroke-width="1"/>
    <path id="Tracé_8093" data-name="Tracé 8093" d="M57.1,356.168H55.949a1.383,1.383,0,1,1,0-2.766H57.1a1.383,1.383,0,1,1,0,2.766Zm0,0" transform="translate(-47.021 -304.602)" fill="#f47254" stroke="#f47254" stroke-width="1"/>
    <path id="Tracé_8094" data-name="Tracé 8094" d="M11.949,356.168H10.8a1.383,1.383,0,1,1,0-2.766h1.152a1.383,1.383,0,1,1,0,2.766Zm0,0" transform="translate(-8.112 -304.602)" fill="#f47254" stroke="#f47254" stroke-width="1"/>
  </g>
</svg>
