<svg id="message" xmlns="http://www.w3.org/2000/svg" width="100.313" height="64.409" viewBox="0 0 100.313 64.409">
  <g id="Groupe_8672" data-name="Groupe 8672" transform="translate(24.064 0)">
    <g id="Groupe_8671" data-name="Groupe 8671">
      <path id="Tracé_8067" data-name="Tracé 8067" d="M198.794,125.5,187.346,94.558a4.488,4.488,0,0,0-5.766-2.652l-55.822,20.651a4.488,4.488,0,0,0-2.652,5.766l11.448,30.944a4.48,4.48,0,0,0,5.767,2.652l55.822-20.651h0A4.493,4.493,0,0,0,198.794,125.5ZM178.512,97.827,161.2,122.581l-29.257-7.524Zm-40.558,47.7-9.93-26.841,23,5.915Zm4.863.687,12.765-20.441,6,1.544a2.283,2.283,0,0,0,.559.072,2.248,2.248,0,0,0,1.84-.958l3.553-5.083,23,7.214Zm27.42-28.722,13.609-19.46,9.934,26.845Z" transform="translate(-122.825 -91.625)" fill="#f47254"/>
    </g>
  </g>
  <g id="Groupe_8674" data-name="Groupe 8674" transform="translate(13.339 56.792)">
    <g id="Groupe_8673" data-name="Groupe 8673">
      <path id="Tracé_8068" data-name="Tracé 8068" d="M80.886,382.96A2.244,2.244,0,0,0,78,381.634l-8.456,3.128a2.244,2.244,0,1,0,1.557,4.209l8.456-3.128A2.243,2.243,0,0,0,80.886,382.96Z" transform="translate(-68.081 -381.494)" fill="#f47254"/>
    </g>
  </g>
  <g id="Groupe_8676" data-name="Groupe 8676" transform="translate(5.13 35.96)">
    <g id="Groupe_8675" data-name="Groupe 8675" transform="translate(0 0)">
      <path id="Tracé_8069" data-name="Tracé 8069" d="M35.751,276.63a2.245,2.245,0,0,0-2.883-1.326l-5.22,1.931a2.244,2.244,0,1,0,1.557,4.209l5.22-1.931A2.244,2.244,0,0,0,35.751,276.63Z" transform="translate(-26.182 -275.164)" fill="#f47254"/>
    </g>
  </g>
  <g id="Groupe_8678" data-name="Groupe 8678" transform="translate(0 52.958)">
    <g id="Groupe_8677" data-name="Groupe 8677">
      <path id="Tracé_8070" data-name="Tracé 8070" d="M8.228,363.392a2.244,2.244,0,0,0-2.883-1.326L1.466,363.5a2.244,2.244,0,1,0,1.557,4.209L6.9,366.275A2.243,2.243,0,0,0,8.228,363.392Z" transform="translate(0 -361.926)" fill="#f47254"/>
    </g>
  </g>
</svg>
