<svg id="linkedin-letters_1_" data-name="linkedin-letters (1)" xmlns="http://www.w3.org/2000/svg" width="20.289" height="19.391" viewBox="0 0 20.289 19.391">
  <g id="Groupe_5259" data-name="Groupe 5259" transform="translate(0 0)">
    <rect id="Rectangle_1812" data-name="Rectangle 1812" width="4.359" height="13.09" transform="translate(0.251 6.301)" fill="#fff"/>
    <path id="Tracé_8058" data-name="Tracé 8058" d="M163.5,140.83a4.691,4.691,0,0,0-3.632-1.5,5.237,5.237,0,0,0-1.513.2,3.433,3.433,0,0,0-1.149.575,4.92,4.92,0,0,0-1.261,1.386v-1.861H151.6l.013.634q.013.634.013,3.91t-.026,8.546h4.346v-7.3a3.19,3.19,0,0,1,.145-1.07,2.806,2.806,0,0,1,.839-1.129,2.139,2.139,0,0,1,1.394-.456,1.879,1.879,0,0,1,1.671.786,3.822,3.822,0,0,1,.535,2.173v7h4.346v-7.5A6.289,6.289,0,0,0,163.5,140.83Z" transform="translate(-144.583 -133.334)" fill="#fff"/>
    <path id="Tracé_8059" data-name="Tracé 8059" d="M2.457,9.708a2.487,2.487,0,0,0-1.777.641A2.127,2.127,0,0,0,0,11.967a2.165,2.165,0,0,0,.66,1.611,2.384,2.384,0,0,0,1.744.647H2.43a2.489,2.489,0,0,0,1.79-.647,2.091,2.091,0,0,0,.667-1.611,2.2,2.2,0,0,0-.674-1.618A2.415,2.415,0,0,0,2.457,9.708Z" transform="translate(0 -9.708)" fill="#fff"/>
  </g>
</svg>
