<svg id="close-envelope" xmlns="http://www.w3.org/2000/svg" width="18.658" height="13.327" viewBox="0 0 18.658 13.327">
  <g id="Groupe_8663" data-name="Groupe 8663" transform="translate(0 0)">
    <path id="Tracé_8063" data-name="Tracé 8063" d="M9.224,9.5,6.915,7.484l-6.6,5.657a1.351,1.351,0,0,0,.921.361H17.21a1.341,1.341,0,0,0,.917-.361l-6.6-5.657Z" transform="translate(0.105 -0.176)" fill="#f47155"/>
    <path id="Tracé_8064" data-name="Tracé 8064" d="M18.13,2.361A1.342,1.342,0,0,0,17.21,2H1.236a1.337,1.337,0,0,0-.918.364L9.223,10Z" transform="translate(0.106 -2)" fill="#f47155"/>
    <path id="Tracé_8065" data-name="Tracé 8065" d="M0,2.878V13.95L6.441,8.477Z" transform="translate(0 -1.708)" fill="#f47155"/>
    <path id="Tracé_8066" data-name="Tracé 8066" d="M9.167,8.478l6.441,5.473V2.875Z" transform="translate(3.05 -1.709)" fill="#f47155"/>
  </g>
</svg>
