<svg xmlns="http://www.w3.org/2000/svg" width="66.544" height="66.792" viewBox="0 0 66.544 66.792">
  <g id="puzzle" transform="translate(1 1)">
    <g id="Groupe_8680" data-name="Groupe 8680" transform="translate(38.726 0.171)">
      <g id="Groupe_8679" data-name="Groupe 8679">
        <path id="Tracé_8071" data-name="Tracé 8071" d="M312.446,3.422a7.434,7.434,0,0,0-5.379-2.151H290a1.065,1.065,0,0,0-1.076,1.076V8.607a2.152,2.152,0,0,0,3.227,1.883,4.217,4.217,0,0,1,2.958-.538,4.3,4.3,0,1,1-2.894,7.95,2.152,2.152,0,0,0-3.227,1.893l-.065,6.218a1.084,1.084,0,0,0,1.065,1.086h6.175a6.454,6.454,0,0,0,5.6,9.682,6.083,6.083,0,0,0,1.388-.151,6.455,6.455,0,0,0,4.948-5.11,6.315,6.315,0,0,0-.785-4.432h6.261a1.076,1.076,0,0,0,1.076-1.076V8.8A7.53,7.53,0,0,0,312.446,3.422Zm.075,21.515h-5.2a2.151,2.151,0,0,0-1.872,1.076,2.076,2.076,0,0,0,0,2.151,4.217,4.217,0,0,1,.527,2.958,4.3,4.3,0,0,1-6.928,2.571v-.022a4.3,4.3,0,0,1-1.076-5.486,2.076,2.076,0,0,0,0-2.151,2.205,2.205,0,0,0-1.9-1.076l-5-.022.054-5.217a6.314,6.314,0,0,0,3.173.914,6.454,6.454,0,0,0,1.2-12.823,6.315,6.315,0,0,0-4.41.785l-.022-5.174h16.071A5.379,5.379,0,0,1,312.521,8.8Z" transform="translate(-288.919 -1.269)" fill="#f47254" stroke="#f47254" stroke-width="2"/>
      </g>
    </g>
    <g id="Groupe_8682" data-name="Groupe 8682" transform="translate(24.57)">
      <g id="Groupe_8681" data-name="Groupe 8681">
        <path id="Tracé_8072" data-name="Tracé 8072" d="M193.666,4.475a4.163,4.163,0,0,1-3.4-3.4,1.076,1.076,0,1,0-2.151,0,4.163,4.163,0,0,1-3.4,3.4,1.076,1.076,0,1,0,0,2.151,4.163,4.163,0,0,1,3.4,3.4,1.076,1.076,0,1,0,2.151,0,4.163,4.163,0,0,1,3.4-3.4,1.076,1.076,0,1,0,0-2.151Zm-4.475,2.614a6.153,6.153,0,0,0-1.538-1.538,6.153,6.153,0,0,0,1.538-1.538,6.153,6.153,0,0,0,1.538,1.538A6.153,6.153,0,0,0,189.191,7.089Z" transform="translate(-183.64 0)" fill="#f47254" stroke="#f47254" stroke-width="2"/>
      </g>
    </g>
    <g id="Groupe_8684" data-name="Groupe 8684" transform="translate(0 15.232)">
      <g id="Groupe_8683" data-name="Groupe 8683">
        <path id="Tracé_8073" data-name="Tracé 8073" d="M50.124,137.258a1.076,1.076,0,0,0-.8-.312H43.067a2.152,2.152,0,0,0-1.883,3.227,4.217,4.217,0,0,1,.538,2.958,4.3,4.3,0,1,1-7.95-2.894,2.076,2.076,0,0,0,0-2.151,2.151,2.151,0,0,0-1.893-1.076l-5.142-.065v-5.174a6.347,6.347,0,0,0,3.227.871,6.454,6.454,0,0,0,1.2-12.8,6.315,6.315,0,0,0-4.41.785l-.022-6.271a1.076,1.076,0,0,0-1.076-1.076H8.45a7.53,7.53,0,0,0-7.53,7.53v17.147a.957.957,0,0,0,.1.42v16.932a7.53,7.53,0,0,0,7.53,7.53H25.662a1.011,1.011,0,0,0,.495-.14H42.906a7.53,7.53,0,0,0,7.53-7.53V138.022A1.076,1.076,0,0,0,50.124,137.258ZM3.071,120.81a5.379,5.379,0,0,1,5.379-5.379H24.586v5.185a2.152,2.152,0,0,0,3.227,1.883,4.217,4.217,0,0,1,2.958-.538,4.3,4.3,0,1,1-2.894,7.95,2.151,2.151,0,0,0-2.151,0,2.205,2.205,0,0,0-1.076,1.9v5.034H19.584a6.454,6.454,0,0,0-.635-7.164,6.587,6.587,0,0,0-1.076-1.076,6.454,6.454,0,0,0-10.4,3.851,6.315,6.315,0,0,0,.785,4.41H3.071Zm5.465,39.8a5.379,5.379,0,0,1-5.379-5.379V139.1h5.2a2.151,2.151,0,0,0,1.872-1.076,2.054,2.054,0,0,0,0-2.151,4.3,4.3,0,0,1,7.025-4.905,4.314,4.314,0,0,1,.3,4.776,2.152,2.152,0,0,0,0,2.151,2.228,2.228,0,0,0,.366.473,2.152,2.152,0,0,0,1.624.742l5.045-.011v5.077a6.863,6.863,0,0,0-3.227-.861,6.454,6.454,0,0,0-6.454,6.454,7.227,7.227,0,0,0,.151,1.506,6.454,6.454,0,0,0,5.1,5.034,6.325,6.325,0,0,0,4.41-.785l.022,5.088H8.536Zm39.716-5.465a5.379,5.379,0,0,1-5.379,5.379H26.737v-5.2a2.151,2.151,0,0,0-1.076-1.872,2.055,2.055,0,0,0-2.151,0,4.217,4.217,0,0,1-2.958.527,4.3,4.3,0,0,1-3.421-3.227,5.286,5.286,0,0,1-.075-.9,4.3,4.3,0,0,1,4.3-4.2,4.239,4.239,0,0,1,2.151.57,2.055,2.055,0,0,0,2.151,0,2.151,2.151,0,0,0,1.076-1.893V139.1l5.2.054a6.454,6.454,0,1,0,11.941,4.367,6.315,6.315,0,0,0-.785-4.41l5.164-.011Z" transform="translate(-0.92 -113.28)" fill="#f47254" stroke="#f47254" stroke-width="2"/>
      </g>
    </g>
    <g id="Groupe_8686" data-name="Groupe 8686" transform="translate(51.635 38.898)">
      <g id="Groupe_8685" data-name="Groupe 8685">
        <path id="Tracé_8074" data-name="Tracé 8074" d="M390.3,289.28a5.379,5.379,0,0,1-5.379,5.379v2.151a7.53,7.53,0,0,0,7.53-7.53Z" transform="translate(-384.92 -289.28)" fill="#f47254" stroke="#f47254" stroke-width="2"/>
      </g>
    </g>
    <g id="Groupe_8688" data-name="Groupe 8688" transform="translate(51.635 38.898)">
      <g id="Groupe_8687" data-name="Groupe 8687">
        <path id="Tracé_8075" data-name="Tracé 8075" d="M395.677,289.28a10.757,10.757,0,0,1-10.757,10.757v2.151a12.909,12.909,0,0,0,12.909-12.909Z" transform="translate(-384.92 -289.28)" fill="#f47254" stroke="#f47254" stroke-width="2"/>
      </g>
    </g>
  </g>
</svg>
