<svg id="twitter_1_" data-name="twitter (1)" xmlns="http://www.w3.org/2000/svg" width="23.688" height="19.251" viewBox="0 0 23.688 19.251">
  <path id="Tracé_8060" data-name="Tracé 8060" d="M23.689,50.235A9.717,9.717,0,0,1,20.9,51a4.875,4.875,0,0,0,2.137-2.689,9.729,9.729,0,0,1-3.086,1.179,4.864,4.864,0,0,0-8.281,4.433A13.8,13.8,0,0,1,1.65,48.845a4.865,4.865,0,0,0,1.5,6.488,4.84,4.84,0,0,1-2.2-.608c0,.02,0,.041,0,.061a4.863,4.863,0,0,0,3.9,4.765,4.865,4.865,0,0,1-2.195.083A4.865,4.865,0,0,0,7.2,63.011a9.75,9.75,0,0,1-6.036,2.08A9.836,9.836,0,0,1,0,65.023a13.754,13.754,0,0,0,7.45,2.184A13.733,13.733,0,0,0,21.278,53.379q0-.316-.014-.629A9.873,9.873,0,0,0,23.689,50.235Z" transform="translate(-0.001 -47.956)" fill="#fff"/>
</svg>
